<?xml version="1.0" encoding="UTF-8" standalone="no"?>
<svg
   width="265.34424"
   height="265.49222"
   viewBox="0 0 250.32475 250.46436"
   version="1.1"
   id="svg1"
   xml:space="preserve"
   xmlns="http://www.w3.org/2000/svg"
   xmlns:svg="http://www.w3.org/2000/svg"><defs
   id="defs1" />
  <g
   id="layer1"
   transform="matrix(4.5386254,0,0,4.9912912,-45.999959,-33.506777)">
    <g
   id="g23">
      <path
   style="fill:#ff5cba;fill-opacity:1;stroke:none;stroke-width:0.499999;stroke-dasharray:none"
   d="M 34.954162,17.697844 C 37.648573,6.9408828 55.032405,18.444378 48.273538,23.106541 43.915601,23.885055 38.438202,21.84818 34.954162,17.697844 Z"
   id="path11" />
      <path
   style="fill:#ff43b0;fill-opacity:1;stroke:none;stroke-width:0.499999;stroke-dasharray:none"
   d="m 37.640114,19.905475 c -0.04189,-6.897837 13.778391,-0.438698 6.549305,2.759539 -4.669374,-0.635701 -5.106197,-1.755122 -6.549305,-2.759539 z"
   id="path10" />
      <path
   style="fill:#ff0495;fill-opacity:1;stroke:none;stroke-width:0.499999;stroke-dasharray:none"
   d="m 39.479806,20.935703 c 0.821115,-2.938907 5.361586,-1.284538 3.716179,1.545343 -1.563897,-0.09704 -2.838707,-0.565758 -3.716179,-1.545343 z"
   id="path9" />
      <path
   style="fill:#ff4eb1;fill-opacity:1;stroke:none;stroke-width:0.499999;stroke-dasharray:none"
   d="m 32.010654,22.33387 -2.465189,-4.48885 c 0.134076,-2.077347 -0.858761,-5.20872 1.950076,-6.365338 1.478616,-0.931301 2.57901,-1.20791 3.090683,-1.25099 1.089703,-1.4133357 2.797226,-1.4142851 4.562438,-1.7661053 3.492106,0.6429075 4.574206,1.3566975 4.746406,2.0972493 1.318469,1.160152 3.227214,2.209628 3.090685,3.642592 1.468702,-0.08596 2.965281,-0.394947 4.341675,0.257557 1.314308,0.890786 1.954287,1.931422 2.3916,3.017096 1.27398,0.527599 2.914957,1.002769 3.569004,1.61893 1.716763,3.824707 1.077605,6.808014 -1.324578,9.161669 -1.085588,3.629148 -4.866254,2.503567 -7.174801,2.465189 -0.06972,-2.363943 -0.663732,-4.203289 3.053889,-6.990833 0.649152,-0.702487 1.14488,-1.524303 0.919845,-2.906714 -1.048145,-1.037798 -2.263426,-1.574189 -3.605797,-1.729311 -0.179617,-0.477659 2.177265,1.401543 -3.458621,-3.569005 -2.822885,-1.780443 -9.12611,-2.05004 -10.449456,2.354808 l -1.618929,-2.391601 z"
   id="path16" />
      <path
   style="fill:#ff73c3;fill-opacity:1;stroke:none;stroke-width:0.499999;stroke-dasharray:none"
   d="m 48.310331,23.069747 c -3.555178,0.618297 -12.120318,-0.80637 -14.202428,-8.20503 -0.531222,0.14109 -1.246046,1.879447 -1.177402,2.57557 -2.242494,5.628992 -0.972237,5.061466 -1.030229,6.954038 0.956582,0.797662 2.45298,0.77221 3.311446,2.354808 3.164394,-1.43915 8.584534,-0.728991 12.693882,-1.471755 z"
   id="path12" />
      <path
   style="fill:#ff98d2;fill-opacity:1;stroke:none;stroke-width:0.499999;stroke-dasharray:none"
   d="m 34.549429,27.374627 c -1.521477,-1.035706 -2.567069,-1.845993 -5.850223,-3.716178 -0.783515,-0.403115 -2.621887,-2.063525 -2.575569,-5.445491 -1.550383,-3.398152 1.26582,-4.686951 4.120911,-4.084118 -0.78267,1.700671 -0.246435,2.838875 -0.515112,4.010531 1.268597,1.367131 2.90686,2.977889 2.318011,4.783201 3.299694,2.003063 2.164814,2.641643 3.164271,3.936941 z"
   id="path15" />
      <path
   style="fill:#ffa3d7;fill-opacity:1;stroke:none;stroke-width:0.499999;stroke-dasharray:none"
   d="m 47.022547,25.240585 c 3.810797,1.780152 11.505298,-5.00131 2.538777,-6.512513 0.359377,3.405458 -2.453322,5.034081 -2.538777,6.512513 z"
   id="path13" />
      <path
   style="fill:#ff48b4;fill-opacity:1;stroke:none;stroke-width:0.499999;stroke-dasharray:none"
   d="m 34.586224,27.521805 c 2.097909,1.906818 4.387839,4.269532 5.003964,6.917242 2.598068,-1.551457 6.076009,-2.917776 9.345639,-3.605797 -0.02942,-2.49037 1.856824,-4.141522 3.274654,-6.438925 -1.272397,0.898523 -4.599874,0.325122 -10.780601,1.32458 -3.075283,0.216604 -6.149021,-0.983701 -6.843656,1.8029 z"
   id="path14" />
      <path
   style="fill:#ff6db9;fill-opacity:1;stroke:none;stroke-width:0.499999;stroke-dasharray:none"
   d="m 41.724232,55.043607 c 10.230654,-1.780586 11.753249,-6.721723 15.453419,-11.774034 1.545865,-2.775344 5.535153,-3.116695 7.579532,-3.82656 0.527324,-1.913281 -0.545961,-3.826561 -1.324578,-5.739841 3.971685,-4.433851 1.25743,-7.606204 -5.151139,-10.081517 l -1.913281,4.341676 c 1.324368,1.128414 2.449755,2.323156 0.883054,4.41526 0.04565,0.257809 -0.549569,0.684267 -4.1945,1.913282 -5.545343,4.707703 -7.444104,15.769213 -11.332507,20.751734 z"
   id="path21" />
      <path
   style="fill:#ff3fad;fill-opacity:1;stroke:none;stroke-width:0.499999;stroke-dasharray:none"
   d="m 25.829286,54.822843 c 8.752984,3.325749 13.180107,2.171142 16.483646,-0.147176 2.637901,-2.78306 5.527723,-5.3142 6.622895,-9.639989 1.363751,-4.404327 2.43596,-9.209524 5.298316,-11.553269 -3.046627,0.290349 -5.20288,1.292997 -7.285183,2.354805 -4.144631,-1.746979 -8.816279,0.01949 -13.540139,2.134045 -12.554986,5.720475 -10.295792,13.808952 -7.579535,16.851584 z"
   id="path20" />
      <path
   style="fill:#ffa4d9;fill-opacity:1;stroke:none;stroke-width:0.499999;stroke-dasharray:none"
   d="m 31.789888,38.780724 c 2.724521,-1.352502 7.79824,-3.589705 14.423194,-2.281222 1.132703,-0.684513 0.803528,0.502494 5.298315,-2.060453 2.571674,-0.881244 3.995144,0.973818 5.666253,-1.986868 3.358451,-0.572681 2.679134,-2.405449 -0.662289,-5.298316 0.636133,0.04021 -2.789895,3.048528 -7.947471,3.679385 -2.864405,0.724844 -5.392268,0.776605 -8.977702,2.943508 -3.998841,1.503952 -9.281864,4.674115 -7.8003,5.003966 z"
   id="path17" />
      <path
   style="fill:#ff73c3;fill-opacity:1;stroke:none;stroke-width:0.499999;stroke-dasharray:none"
   d="m 21.561199,30.759662 c 2.444907,-2.997329 4.710969,-6.155618 5.224728,-10.89098 -1.159143,-3.878038 -0.455072,-6.125764 3.090682,-5.887017 l 1.61893,-2.501982 c 1.924083,0.186446 3.207259,-1.229374 4.783201,-1.9132809 -0.872367,-1.106 -1.6937,-2.3395845 -2.943508,-2.5019819 -0.429267,0.5175658 -0.493844,1.1080695 -2.796333,1.2509909 -8.428447,-4.6664781 -9.786173,1.7781759 -11.55327,7.5795339 4.082984,4.310013 3.268856,9.599449 2.57557,14.864717 z"
   id="path18" />
      <path
   style="fill:#ff5dba;fill-opacity:1;stroke:none;stroke-width:0.499999;stroke-dasharray:none"
   d="m 21.266848,30.83325 c 1.960623,-3.682474 4.404032,-7.566523 5.592665,-10.890981 l 1.913281,3.752973 c 8.897033,2.254961 11.437208,5.764794 10.89098,10.155105 -8.34467,4.639649 -16.404043,9.451552 -14.570365,20.236619 -0.760406,-0.739325 -1.520813,-1.426072 -2.281219,-5.224727 1.227629,-4.065178 0.717181,-7.633763 0.662289,-11.332507 -0.825067,-0.927686 -1.969728,-2.832973 -2.207631,-6.696482 z"
   id="path19" />
      <path
   style="fill:#ffafde;fill-opacity:1;stroke:none;stroke-width:0.499999;stroke-dasharray:none"
   d="m 22.885778,37.676907 c 0.01085,-1.344954 -1.725968,-3.622002 -7.579534,-8.094647 -0.596524,-1.921528 -0.781915,-3.925282 -2.281219,-5.666254 -1.474123,-0.424914 -2.300993,-1.36763 -2.796333,-2.575571 -0.07466,-2.319622 -0.3430829,-4.782711 0.588702,-5.739841 1.073063,-1.635613 2.410286,-2.632388 4.856788,-3.679385 1.736148,-0.396155 3.266583,-0.312314 4.415263,0.662289 l -0.735877,3.385035 c 3.824458,5.181714 2.971042,10.168516 2.207631,15.159069 z"
   id="path22" />
      <path
   style="fill:#ff3ead;fill-opacity:1;stroke:none;stroke-width:0.499999;stroke-dasharray:none"
   d="M 25.902874,54.822843 C 25.574289,53.109152 24.037136,51.535301 23.695242,47.83201 23.880136,44.609252 25.342453,35.798864 22.591427,35.837215 20.59187,32.569733 18.58934,31.621389 16.777998,30.612486 c -5.682591,14.784459 1.284474,20.437478 9.124876,24.210357 z"
   id="path23" />
    </g>
  </g>
</svg>
